<?xml version="1.0" encoding="UTF-8"?>
<svg version="1.1" xmlns="http://www.w3.org/2000/svg" width="490" height="490">
<path d="M0 0 C1.00788574 0.20898926 2.01577148 0.41797852 3.05419922 0.63330078 C44.51406683 9.44542039 84.7181729 29.28346629 115.51171875 58.62890625 C117.61809341 60.63607959 119.76611653 62.51418872 122 64.375 C159.91973454 97.52544834 183.65285664 148.38036285 193 197 C193.16371094 197.78761719 193.32742188 198.57523438 193.49609375 199.38671875 C199.33282179 228.18445957 198.1361378 261.37879633 192 290 C191.68651611 291.51182861 191.68651611 291.51182861 191.36669922 293.05419922 C182.55457961 334.51406683 162.71653371 374.7181729 133.37109375 405.51171875 C131.36392041 407.61809341 129.48581128 409.76611653 127.625 412 C94.47455166 449.91973454 43.61963715 473.65285664 -5 483 C-6.18142578 483.24556641 -6.18142578 483.24556641 -7.38671875 483.49609375 C-36.18445957 489.33282179 -69.37879633 488.1361378 -98 482 C-99.51182861 481.68651611 -99.51182861 481.68651611 -101.05419922 481.36669922 C-142.51406683 472.55457961 -182.7181729 452.71653371 -213.51171875 423.37109375 C-215.61809341 421.36392041 -217.76611653 419.48581128 -220 417.625 C-257.91973454 384.47455166 -281.65285664 333.61963715 -291 285 C-291.16371094 284.21238281 -291.32742188 283.42476563 -291.49609375 282.61328125 C-297.33282179 253.81554043 -296.1361378 220.62120367 -290 192 C-289.79101074 190.99211426 -289.58202148 189.98422852 -289.36669922 188.94580078 C-280.55457961 147.48593317 -260.71653371 107.2818271 -231.37109375 76.48828125 C-229.36392041 74.38190659 -227.48581128 72.23388347 -225.625 70 C-192.47455166 32.08026546 -141.61963715 8.34714336 -93 -1 C-92.21238281 -1.16371094 -91.42476562 -1.32742188 -90.61328125 -1.49609375 C-61.81554043 -7.33282179 -28.62120367 -6.1361378 0 0 Z " fill="#161616" transform="translate(294,4)"/>
<path d="M0 0 C0.62008438 0.30107162 1.24016876 0.60214325 1.87904358 0.91233826 C2.86300865 1.37633278 2.86300865 1.37633278 3.86685181 1.84970093 C5.93900278 2.82928372 8.00469155 3.82170052 10.07044983 4.81468201 C11.48345258 5.4854655 12.89686065 6.1553959 14.3106842 6.82444763 C17.75620255 8.45720317 21.19599115 10.10148933 24.63294983 11.75218201 C24.63294983 12.41218201 24.63294983 13.07218201 24.63294983 13.75218201 C22.95774585 15.1527129 21.21371891 16.47115913 19.44544983 17.75218201 C18.35234942 18.55207235 17.25992673 19.35288947 16.16810608 20.15452576 C15.59334534 20.574599 15.01858459 20.99467224 14.42640686 21.42747498 C11.37806208 23.67908385 8.38155625 25.99748233 5.38294983 28.31468201 C4.52407166 28.97693787 4.52407166 28.97693787 3.64784241 29.65257263 C2.30900091 30.68507078 0.97088959 31.71851564 -0.36705017 32.75218201 C-14.89121027 26.44539473 -29.07609365 19.61184114 -43.36705017 12.75218201 C-43.03705017 61.26218201 -42.70705017 109.77218201 -42.36705017 159.75218201 C-12.87206068 173.76274508 -12.87206068 173.76274508 16.63294983 187.75218201 C16.96294983 188.41218201 17.29294983 189.07218201 17.63294983 189.75218201 C14.15550035 191.50560911 10.67568089 193.25428321 7.19544983 195.00218201 C6.22156311 195.49331482 5.24767639 195.98444763 4.24427795 196.49046326 C1.38132558 197.92672699 -1.49167364 199.34099142 -4.36705017 200.75218201 C-5.19865662 201.1769281 -6.03026306 201.60167419 -6.8870697 202.03929138 C-7.65518982 202.41376404 -8.42330994 202.78823669 -9.21470642 203.17405701 C-9.87607605 203.5050238 -10.53744568 203.8359906 -11.21885681 204.17698669 C-16.93122834 205.70651815 -22.12081431 202.69959905 -27.16001892 200.25218201 C-27.90552505 199.89760925 -28.65103119 199.5430365 -29.41912842 199.17771912 C-31.80103808 198.04290798 -34.17783497 196.89782601 -36.55455017 195.75218201 C-38.10044059 195.01320261 -39.64666225 194.27491574 -41.19322205 193.53733826 C-44.13109841 192.13538132 -47.06669211 190.72883725 -50.00059509 189.31858826 C-58.11157217 185.43966596 -66.241749 181.60100888 -74.36705017 177.75218201 C-74.36705017 127.92218201 -74.36705017 78.09218201 -74.36705017 26.75218201 C-55.85401604 17.49566494 -55.85401604 17.49566494 -48.51939392 13.92015076 C-47.69298904 13.5168605 -46.86658417 13.11357025 -46.01513672 12.69805908 C-44.30427899 11.86354353 -42.59321577 11.02944913 -40.88194275 10.19578552 C-38.27518404 8.9253703 -35.66973898 7.65228664 -33.0643158 6.37913513 C-31.38275402 5.55931191 -29.70111621 4.73964465 -28.01939392 3.92015076 C-27.2526384 3.54512924 -26.48588287 3.17010773 -25.69589233 2.78372192 C-24.25728836 2.08410961 -22.81527272 1.39145628 -21.36946106 0.7068634 C-20.07585017 0.09011373 -18.79166245 -0.54699223 -17.52015686 -1.20811462 C-11.1362188 -4.34379035 -6.22098434 -2.90490084 0 0 Z " fill="#FCFCFC" transform="translate(190.36705017089844,143.24781799316406)"/>
<path d="M0 0 C0 63.03 0 126.06 0 191 C-28 204 -28 204 -30 204 C-30 140.97 -30 77.94 -30 13 C-2 0 -2 0 0 0 Z " fill="#FEFEFE" transform="translate(336,142)"/>
<path d="M0 0 C-0.69821971 11.41228081 -2.40723756 22.68642867 -4 34 C-7.52287699 58.98428842 -7.52287699 58.98428842 -10.8125 84 C-10.998125 85.45768799 -10.998125 85.45768799 -11.1875 86.94482422 C-11.29707031 87.82928223 -11.40664063 88.71374023 -11.51953125 89.625 C-11.61339111 90.38039063 -11.70725098 91.13578125 -11.80395508 91.9140625 C-11.99387744 93.93485537 -12 95.97030191 -12 98 C-11.06317383 98.4532666 -10.12634766 98.9065332 -9.16113281 99.37353516 C-5.62706193 101.08368944 -2.09349176 102.7948762 1.43994141 104.50634766 C2.95836341 105.24164776 4.47691431 105.97668175 5.99560547 106.71142578 C15.02768746 111.0814034 24.04101587 115.4814993 33 120 C29.17802679 124.4739322 23.36716231 126.40037157 18.14038086 128.83544922 C16.19695468 129.74557229 14.26577201 130.6787596 12.33398438 131.61328125 C11.09182816 132.19676728 9.8490096 132.77884579 8.60546875 133.359375 C7.48293701 133.89014648 6.36040527 134.42091797 5.20385742 134.96777344 C-1.31632303 137.06846101 -6.2977725 134.14587962 -12.06640625 131.25390625 C-12.82291977 130.88273178 -13.57943329 130.51155731 -14.35887146 130.12913513 C-16.76376206 128.94756032 -19.1632572 127.75549499 -21.5625 126.5625 C-23.96629373 125.37517669 -26.37115784 124.19006826 -28.77684021 123.00657654 C-30.26959101 122.27135829 -31.76108187 121.53357469 -33.25111389 120.79286194 C-33.93209641 120.45588791 -34.61307892 120.11891388 -35.31469727 119.77172852 C-35.90726822 119.47718277 -36.49983917 119.18263702 -37.11036682 118.87916565 C-39.37267892 117.82660841 -41.67720633 116.91008163 -44 116 C-43.0038593 99.30643543 -41.37561021 82.67856174 -39.6281004 66.04872799 C-39.09528671 60.9679275 -38.58458386 55.8868619 -38.12280273 50.79907227 C-37.67161379 45.83513493 -37.16580855 40.87957134 -36.62140846 35.92502022 C-36.42465005 34.04795384 -36.24727234 32.16874602 -36.09015465 30.2879467 C-34.84883652 15.66371452 -34.84883652 15.66371452 -30.30145264 11.57165527 C-27.21869385 10.00267889 -24.3178816 8.95475196 -21 8 C-19.23736624 7.2443328 -17.4826131 6.46956199 -15.7421875 5.6640625 C-14.12154938 4.98019451 -12.49917481 4.30042545 -10.875 3.625 C-10.0396875 3.27050781 -9.204375 2.91601562 -8.34375 2.55078125 C-2.25732987 0 -2.25732987 0 0 0 Z " fill="#FCFCFC" transform="translate(272,142)"/>
<path d="M0 0 C2.49456485 0.98323784 4.84412963 1.99392265 7.24609375 3.16015625 C7.90207047 3.46948593 8.55804718 3.77881561 9.23390198 4.09751892 C11.30605295 5.07710172 13.37174172 6.06951852 15.4375 7.0625 C16.85050275 7.73328349 18.26391082 8.4032139 19.67773438 9.07226562 C23.12325273 10.70502116 26.56304132 12.34930733 30 14 C30 14.66 30 15.32 30 16 C28.32479602 17.40053089 26.58076908 18.71897712 24.8125 20 C23.71939959 20.79989034 22.6269769 21.60070746 21.53515625 22.40234375 C20.96039551 22.82241699 20.38563477 23.24249023 19.79345703 23.67529297 C16.74511225 25.92690184 13.74860642 28.24530032 10.75 30.5625 C9.89112183 31.22475586 9.89112183 31.22475586 9.01489258 31.90039062 C7.67605108 32.93288877 6.33793976 33.96633363 5 35 C-9.5241601 28.69321273 -23.70904348 21.85965913 -38 15 C-38 63.51 -38 112.02 -38 162 C-38.33 162 -38.66 162 -39 162 C-39 113.16 -39 64.32 -39 14 C-7 -1 -7 -1 0 0 Z " fill="#EFEFEF" transform="translate(185,141)"/>
<path d="M0 0 C5.63454697 2.42271873 9.52740693 7.11824333 13.8125 11.375 C14.70904297 12.23867188 15.60558594 13.10234375 16.52929688 13.9921875 C17.37169922 14.8275 18.21410156 15.6628125 19.08203125 16.5234375 C20.24569214 17.6669165 20.24569214 17.6669165 21.43286133 18.83349609 C23 21 23 21 23.02441406 22.98193359 C21.61305241 25.7622757 19.75272534 27.58223174 17.52734375 29.765625 C16.62822266 30.65507812 15.72910156 31.54453125 14.80273438 32.4609375 C13.85720703 33.38132812 12.91167969 34.30171875 11.9375 35.25 C10.97783027 36.19461673 10.01883771 37.13992195 9.06054688 38.0859375 C6.71361172 40.39749172 4.35996609 42.7017634 2 45 C-1.66752005 43.4608199 -3.98580573 41.24514548 -6.765625 38.4296875 C-7.65507812 37.53378906 -8.54453125 36.63789063 -9.4609375 35.71484375 C-10.38132812 34.77769531 -11.30171875 33.84054687 -12.25 32.875 C-13.19484856 31.92011363 -14.14015633 30.96568141 -15.0859375 30.01171875 C-17.39518338 27.67890913 -19.69963203 25.34155914 -22 23 C-17.47008204 17.56266945 -12.65705784 12.53541069 -7.625 7.5625 C-6.88894531 6.83095703 -6.15289062 6.09941406 -5.39453125 5.34570312 C-3.59863926 3.56147277 -1.80044015 1.77963876 0 0 Z " fill="#F9F9F9" transform="translate(382,304)"/>
</svg>
